<svg xmlns="http://www.w3.org/2000/svg" viewBox="0 0 32 32">
  <path fill="#ffffff" d="M19.11 17.36c-.3-.15-1.77-.87-2.04-.97-.27-.1-.47-.15-.67.15-.2.3-.77.97-.94 1.17-.17.2-.35.22-.65.07-.3-.15-1.25-.46-2.38-1.46-.88-.78-1.47-1.74-1.64-2.04-.17-.3-.02-.46.13-.61.13-.13.3-.35.45-.52.15-.17.2-.3.3-.5.1-.2.05-.37-.02-.52-.08-.15-.67-1.62-.92-2.22-.24-.58-.49-.5-.67-.5h-.57c-.2 0-.52.08-.8.37-.27.3-1.05 1.02-1.05 2.47s1.07 2.86 1.22 3.06c.15.2 2.1 3.2 5.08 4.49.71.31 1.27.49 1.7.63.71.22 1.36.19 1.87.12.57-.08 1.77-.72 2.02-1.42.25-.7.25-1.3.17-1.42-.08-.12-.27-.2-.57-.35z"/>
  <path fill="#ffffff" d="M16.02 3.2c-7.06 0-12.8 5.73-12.8 12.79 0 2.25.59 4.45 1.7 6.38L3 29l6.82-1.79a12.8 12.8 0 0 0 6.2 1.58h.01c7.05 0 12.79-5.74 12.79-12.8 0-7.05-5.74-12.79-12.8-12.79zm0 23.36h-.01a10.6 10.6 0 0 1-5.4-1.48l-.39-.23-4.05 1.06 1.08-3.95-.25-.4a10.57 10.57 0 1 1 9.02 5z"/>
</svg>